<?xml version="1.0" encoding="UTF-8"?>
<svg version="1.1" xmlns="http://www.w3.org/2000/svg" width="96" height="96">
<path d="M0 0 C1.71725784 -0.01441132 1.71725784 -0.01441132 3.46920776 -0.02911377 C4.70671783 -0.03336365 5.94422791 -0.03761353 7.21923828 -0.04199219 C8.49050568 -0.04769226 9.76177307 -0.05339233 11.07156372 -0.05926514 C13.76324036 -0.06871852 16.45480541 -0.07561375 19.14648438 -0.07910156 C22.58867877 -0.08458438 26.03047723 -0.10861218 29.47254753 -0.13707352 C32.76308101 -0.16022182 36.05363477 -0.16215088 39.34423828 -0.16699219 C41.19443069 -0.18551239 41.19443069 -0.18551239 43.08200073 -0.20440674 C44.23314362 -0.20140564 45.3842865 -0.19840454 46.5703125 -0.1953125 C48.08563065 -0.20078094 48.08563065 -0.20078094 49.63156128 -0.20635986 C53.17849504 0.26201135 55.86784269 1.61442472 58.41455078 4.16113281 C58.52564274 6.82287383 58.5719436 9.45891112 58.57568359 12.12158203 C58.58313095 13.37278336 58.58313095 13.37278336 58.59072876 14.64926147 C58.60538922 17.421456 58.61215887 20.19359331 58.61767578 22.96582031 C58.62342411 24.88534549 58.62918188 26.80487063 58.63494873 28.72439575 C58.64546983 32.75458037 58.6513052 36.78474498 58.65478516 40.81494141 C58.66027171 45.98591882 58.68429851 51.15663315 58.71275711 56.327528 C58.7313566 60.29428893 58.73658766 64.26098616 58.73812103 68.22778702 C58.74115427 70.13442549 58.74920526 72.04106267 58.76230621 73.94765854 C58.77931046 76.6126089 58.77750035 79.27691234 58.77099609 81.94189453 C58.78021088 82.73370117 58.78942566 83.52550781 58.79891968 84.34130859 C58.75814532 89.6588601 58.75814532 89.6588601 57.07977295 92.11233521 C53.69605942 94.24348066 50.71695195 94.29594627 46.82910156 94.32226562 C45.684263 94.33187317 44.53942444 94.34148071 43.3598938 94.35137939 C42.12238373 94.35562927 40.88487366 94.35987915 39.60986328 94.36425781 C38.33859589 94.36995789 37.06732849 94.37565796 35.75753784 94.38153076 C33.0658612 94.39098415 30.37429615 94.39787937 27.68261719 94.40136719 C24.24042279 94.40685001 20.79862433 94.43087781 17.35655403 94.45933914 C14.06602055 94.48248744 10.77546679 94.48441651 7.48486328 94.48925781 C5.63467087 94.50777802 5.63467087 94.50777802 3.74710083 94.52667236 C2.59595795 94.52367126 1.44481506 94.52067017 0.25878906 94.51757812 C-0.75142303 94.52122375 -1.76163513 94.52486938 -2.80245972 94.52862549 C-6.34939348 94.06025427 -9.03874113 92.7078409 -11.58544922 90.16113281 C-11.72660083 87.4905443 -11.62792029 84.83681044 -11.58544922 82.16113281 C-12.38982422 82.01675781 -13.19419922 81.87238281 -14.02294922 81.72363281 C-16.58544922 81.16113281 -16.58544922 81.16113281 -17.58544922 80.16113281 C-17.77294922 76.72363281 -17.77294922 76.72363281 -17.58544922 73.16113281 C-16.59544922 72.17113281 -16.59544922 72.17113281 -15.58544922 71.16113281 C-14.26544922 71.16113281 -12.94544922 71.16113281 -11.58544922 71.16113281 C-12.26809566 67.94617905 -12.26809566 67.94617905 -15.14794922 66.84863281 C-15.95232422 66.29175781 -16.75669922 65.73488281 -17.58544922 65.16113281 C-18.13586944 61.85861147 -18.21794132 60.06469295 -16.27294922 57.28613281 C-14.58544922 56.16113281 -14.58544922 56.16113281 -11.58544922 56.16113281 C-11.58544922 55.17113281 -11.58544922 54.18113281 -11.58544922 53.16113281 C-12.79201172 52.97550781 -12.79201172 52.97550781 -14.02294922 52.78613281 C-14.86857422 52.57988281 -15.71419922 52.37363281 -16.58544922 52.16113281 C-17.99986796 49.33229534 -17.90445254 47.28736537 -17.58544922 44.16113281 C-15.71044922 42.28613281 -15.71044922 42.28613281 -13.58544922 41.16113281 C-12.92544922 41.16113281 -12.26544922 41.16113281 -11.58544922 41.16113281 C-11.58544922 40.17113281 -11.58544922 39.18113281 -11.58544922 38.16113281 C-12.38982422 38.01675781 -13.19419922 37.87238281 -14.02294922 37.72363281 C-16.58544922 37.16113281 -16.58544922 37.16113281 -17.58544922 36.16113281 C-17.77294922 32.72363281 -17.77294922 32.72363281 -17.58544922 29.16113281 C-16.92544922 28.50113281 -16.26544922 27.84113281 -15.58544922 27.16113281 C-14.26544922 27.16113281 -12.94544922 27.16113281 -11.58544922 27.16113281 C-11.58544922 25.84113281 -11.58544922 24.52113281 -11.58544922 23.16113281 C-12.38982422 23.01675781 -13.19419922 22.87238281 -14.02294922 22.72363281 C-16.58544922 22.16113281 -16.58544922 22.16113281 -17.58544922 21.16113281 C-17.77294922 17.72363281 -17.77294922 17.72363281 -17.58544922 14.16113281 C-16.92544922 13.50113281 -16.26544922 12.84113281 -15.58544922 12.16113281 C-14.26544922 12.16113281 -12.94544922 12.16113281 -11.58544922 12.16113281 C-11.67826172 10.27394531 -11.67826172 10.27394531 -11.77294922 8.34863281 C-11.77294922 4.43791853 -11.77294922 4.43791853 -10.27294922 2.22363281 C-6.87788477 0.08599964 -3.90186978 0.02641426 0 0 Z " fill="#A0BADF" transform="translate(27.58544921875,0.8388671875)"/>
<path d="M0 0 C1.71725784 -0.01441132 1.71725784 -0.01441132 3.46920776 -0.02911377 C4.70671783 -0.03336365 5.94422791 -0.03761353 7.21923828 -0.04199219 C8.49050568 -0.04769226 9.76177307 -0.05339233 11.07156372 -0.05926514 C13.76324036 -0.06871852 16.45480541 -0.07561375 19.14648438 -0.07910156 C22.58867877 -0.08458438 26.03047723 -0.10861218 29.47254753 -0.13707352 C32.76308101 -0.16022182 36.05363477 -0.16215088 39.34423828 -0.16699219 C41.19443069 -0.18551239 41.19443069 -0.18551239 43.08200073 -0.20440674 C44.23314362 -0.20140564 45.3842865 -0.19840454 46.5703125 -0.1953125 C48.08563065 -0.20078094 48.08563065 -0.20078094 49.63156128 -0.20635986 C53.17849504 0.26201135 55.86784269 1.61442472 58.41455078 4.16113281 C58.52564274 6.82287383 58.5719436 9.45891112 58.57568359 12.12158203 C58.58313095 13.37278336 58.58313095 13.37278336 58.59072876 14.64926147 C58.60538922 17.421456 58.61215887 20.19359331 58.61767578 22.96582031 C58.62342411 24.88534549 58.62918188 26.80487063 58.63494873 28.72439575 C58.64546983 32.75458037 58.6513052 36.78474498 58.65478516 40.81494141 C58.66027171 45.98591882 58.68429851 51.15663315 58.71275711 56.327528 C58.7313566 60.29428893 58.73658766 64.26098616 58.73812103 68.22778702 C58.74115427 70.13442549 58.74920526 72.04106267 58.76230621 73.94765854 C58.77931046 76.6126089 58.77750035 79.27691234 58.77099609 81.94189453 C58.78021088 82.73370117 58.78942566 83.52550781 58.79891968 84.34130859 C58.75814532 89.6588601 58.75814532 89.6588601 57.07977295 92.11233521 C53.69605942 94.24348066 50.71695195 94.29594627 46.82910156 94.32226562 C45.684263 94.33187317 44.53942444 94.34148071 43.3598938 94.35137939 C42.12238373 94.35562927 40.88487366 94.35987915 39.60986328 94.36425781 C38.33859589 94.36995789 37.06732849 94.37565796 35.75753784 94.38153076 C33.0658612 94.39098415 30.37429615 94.39787937 27.68261719 94.40136719 C24.24042279 94.40685001 20.79862433 94.43087781 17.35655403 94.45933914 C14.06602055 94.48248744 10.77546679 94.48441651 7.48486328 94.48925781 C5.63467087 94.50777802 5.63467087 94.50777802 3.74710083 94.52667236 C2.59595795 94.52367126 1.44481506 94.52067017 0.25878906 94.51757812 C-0.75142303 94.52122375 -1.76163513 94.52486938 -2.80245972 94.52862549 C-6.34939348 94.06025427 -9.03874113 92.7078409 -11.58544922 90.16113281 C-11.72660083 87.4905443 -11.62792029 84.83681044 -11.58544922 82.16113281 C-12.38982422 82.01675781 -13.19419922 81.87238281 -14.02294922 81.72363281 C-16.58544922 81.16113281 -16.58544922 81.16113281 -17.58544922 80.16113281 C-17.77294922 76.72363281 -17.77294922 76.72363281 -17.58544922 73.16113281 C-16.59544922 72.17113281 -16.59544922 72.17113281 -15.58544922 71.16113281 C-14.26544922 71.16113281 -12.94544922 71.16113281 -11.58544922 71.16113281 C-12.26809566 67.94617905 -12.26809566 67.94617905 -15.14794922 66.84863281 C-15.95232422 66.29175781 -16.75669922 65.73488281 -17.58544922 65.16113281 C-18.13586944 61.85861147 -18.21794132 60.06469295 -16.27294922 57.28613281 C-14.58544922 56.16113281 -14.58544922 56.16113281 -11.58544922 56.16113281 C-11.58544922 55.17113281 -11.58544922 54.18113281 -11.58544922 53.16113281 C-12.79201172 52.97550781 -12.79201172 52.97550781 -14.02294922 52.78613281 C-14.86857422 52.57988281 -15.71419922 52.37363281 -16.58544922 52.16113281 C-17.99986796 49.33229534 -17.90445254 47.28736537 -17.58544922 44.16113281 C-15.71044922 42.28613281 -15.71044922 42.28613281 -13.58544922 41.16113281 C-12.92544922 41.16113281 -12.26544922 41.16113281 -11.58544922 41.16113281 C-11.58544922 40.17113281 -11.58544922 39.18113281 -11.58544922 38.16113281 C-12.38982422 38.01675781 -13.19419922 37.87238281 -14.02294922 37.72363281 C-16.58544922 37.16113281 -16.58544922 37.16113281 -17.58544922 36.16113281 C-17.77294922 32.72363281 -17.77294922 32.72363281 -17.58544922 29.16113281 C-16.92544922 28.50113281 -16.26544922 27.84113281 -15.58544922 27.16113281 C-14.26544922 27.16113281 -12.94544922 27.16113281 -11.58544922 27.16113281 C-11.58544922 25.84113281 -11.58544922 24.52113281 -11.58544922 23.16113281 C-12.38982422 23.01675781 -13.19419922 22.87238281 -14.02294922 22.72363281 C-16.58544922 22.16113281 -16.58544922 22.16113281 -17.58544922 21.16113281 C-17.77294922 17.72363281 -17.77294922 17.72363281 -17.58544922 14.16113281 C-16.92544922 13.50113281 -16.26544922 12.84113281 -15.58544922 12.16113281 C-14.26544922 12.16113281 -12.94544922 12.16113281 -11.58544922 12.16113281 C-11.67826172 10.27394531 -11.67826172 10.27394531 -11.77294922 8.34863281 C-11.77294922 4.43791853 -11.77294922 4.43791853 -10.27294922 2.22363281 C-6.87788477 0.08599964 -3.90186978 0.02641426 0 0 Z M-8.58544922 5.16113281 C-8.75222204 8.74457257 -8.75222204 8.74457257 -8.58544922 12.16113281 C-7.26544922 12.49113281 -5.94544922 12.82113281 -4.58544922 13.16113281 C-4.25544922 16.46113281 -3.92544922 19.76113281 -3.58544922 23.16113281 C-5.23544922 23.16113281 -6.88544922 23.16113281 -8.58544922 23.16113281 C-8.58544922 24.48113281 -8.58544922 25.80113281 -8.58544922 27.16113281 C-6.93544922 27.16113281 -5.28544922 27.16113281 -3.58544922 27.16113281 C-3.91544922 30.46113281 -4.24544922 33.76113281 -4.58544922 37.16113281 C-6.56544922 37.65613281 -6.56544922 37.65613281 -8.58544922 38.16113281 C-8.58544922 39.48113281 -8.58544922 40.80113281 -8.58544922 42.16113281 C-6.93544922 42.16113281 -5.28544922 42.16113281 -3.58544922 42.16113281 C-3.91544922 45.46113281 -4.24544922 48.76113281 -4.58544922 52.16113281 C-6.56544922 52.65613281 -6.56544922 52.65613281 -8.58544922 53.16113281 C-8.58544922 54.15113281 -8.58544922 55.14113281 -8.58544922 56.16113281 C-7.26544922 56.49113281 -5.94544922 56.82113281 -4.58544922 57.16113281 C-4.25544922 60.46113281 -3.92544922 63.76113281 -3.58544922 67.16113281 C-5.23544922 67.16113281 -6.88544922 67.16113281 -8.58544922 67.16113281 C-8.58544922 68.48113281 -8.58544922 69.80113281 -8.58544922 71.16113281 C-6.93544922 71.16113281 -5.28544922 71.16113281 -3.58544922 71.16113281 C-3.58544922 74.79113281 -3.58544922 78.42113281 -3.58544922 82.16113281 C-5.23544922 82.16113281 -6.88544922 82.16113281 -8.58544922 82.16113281 C-8.75222204 85.57769305 -8.75222204 85.57769305 -8.58544922 89.16113281 C-6.78720992 91.37806511 -6.78720992 91.37806511 -4.33285522 91.40164185 C-2.9272081 91.39498001 -2.9272081 91.39498001 -1.49316406 91.38818359 C0.12054077 91.38782104 0.12054077 91.38782104 1.7668457 91.38745117 C3.46804565 91.37210327 3.46804565 91.37210327 5.20361328 91.35644531 C6.76341919 91.35342407 6.76341919 91.35342407 8.35473633 91.3503418 C12.24971917 91.33985541 16.14463928 91.31193298 20.03955078 91.28613281 C28.74330078 91.24488281 37.44705078 91.20363281 46.41455078 91.16113281 C46.74455078 67.40113281 47.07455078 43.64113281 47.41455078 19.16113281 C51.86955078 18.66613281 51.86955078 18.66613281 56.41455078 18.16113281 C56.49562662 16.2243212 56.55377553 14.28653941 56.60205078 12.34863281 C56.63685547 11.2696875 56.67166016 10.19074219 56.70751953 9.07910156 C56.66011501 6.22708287 56.66011501 6.22708287 55.25978088 4.50202942 C52.65837321 2.61163173 50.79631104 2.78690689 47.59790039 2.78881836 C46.40333725 2.78258957 45.20877411 2.77636078 43.97801208 2.76994324 C42.68734329 2.77915298 41.3966745 2.78836273 40.06689453 2.79785156 C38.73075867 2.79837022 37.39462204 2.79785231 36.05848694 2.79634094 C33.25998526 2.79643062 30.46177194 2.80685157 27.66333008 2.82495117 C24.07291815 2.84766047 20.48292674 2.84817813 16.89246273 2.84143353 C14.13440704 2.83809557 11.37644757 2.84471992 8.61841011 2.85456276 C6.64966247 2.86029257 4.68089844 2.85897778 2.71214294 2.85758972 C0.92502647 2.87188774 0.92502647 2.87188774 -0.89819336 2.88647461 C-2.47679893 2.8933857 -2.47679893 2.8933857 -4.08729553 2.9004364 C-6.75829872 2.91405186 -6.75829872 2.91405186 -8.58544922 5.16113281 Z " fill="#2A446A" transform="translate(27.58544921875,0.8388671875)"/>
<path d="M0 0 C12.21 0 24.42 0 37 0 C37 6.6 37 13.2 37 20 C24.79 20 12.58 20 0 20 C0 13.4 0 6.8 0 0 Z " fill="#7289A8" transform="translate(30,21)"/>
<path d="M0 0 C12.21 0 24.42 0 37 0 C37 6.6 37 13.2 37 20 C24.79 20 12.58 20 0 20 C0 13.4 0 6.8 0 0 Z M2 3 C2 7.95 2 12.9 2 18 C13.22 18 24.44 18 36 18 C36 13.05 36 8.1 36 3 C24.78 3 13.56 3 2 3 Z " fill="#385277" transform="translate(30,21)"/>
<path d="M0 0 C11.22 0 22.44 0 34 0 C34 4.95 34 9.9 34 15 C22.78 15 11.56 15 0 15 C0 14.67 0 14.34 0 14 C10.89 14 21.78 14 33 14 C32.505 9.545 32.505 9.545 32 5 C30.51886719 5 29.03773437 5 27.51171875 5 C18.34114583 5 9.17057292 5 0 5 C0 3.35 0 1.7 0 0 Z " fill="#5F7798" transform="translate(32,24)"/>
<path d="M0 0 C2.64 0 5.28 0 8 0 C8 5.94 8 11.88 8 18 C5.36 18 2.72 18 0 18 C0 12.06 0 6.12 0 0 Z " fill="#D5B979" transform="translate(76,58)"/>
<path d="M0 0 C2.64 0 5.28 0 8 0 C8 5.94 8 11.88 8 18 C5.36 18 2.72 18 0 18 C0 12.06 0 6.12 0 0 Z " fill="#CA6982" transform="translate(76,39)"/>
<path d="M0 0 C2.64 0 5.28 0 8 0 C8 5.61 8 11.22 8 17 C5.36 17 2.72 17 0 17 C0 11.39 0 5.78 0 0 Z " fill="#57BA9B" transform="translate(76,21)"/>
<path d="M0 0 C2.64 0 5.28 0 8 0 C8.08114106 1.77007714 8.13925505 3.54122098 8.1875 5.3125 C8.22230469 6.29863281 8.25710937 7.28476563 8.29296875 8.30078125 C8 11 8 11 6.80078125 12.85546875 C5 14 5 14 0 14 C0 9.38 0 4.76 0 0 Z " fill="#589CDE" transform="translate(76,78)"/>
<path d="M0 0 C1.65 0 3.3 0 5 0 C5 3.3 5 6.6 5 10 C3.35 10.33 1.7 10.66 0 11 C-0.33 12.32 -0.66 13.64 -1 15 C-1 12.69 -1 10.38 -1 8 C-2.65 8 -4.3 8 -6 8 C-6 6.35 -6 4.7 -6 3 C-4.02 2.34 -2.04 1.68 0 1 C0 0.67 0 0.34 0 0 Z " fill="#374F72" transform="translate(19,28)"/>
<path d="M0 0 C1.5921785 0.00666183 1.5921785 0.00666183 3.21652222 0.01345825 C4.41761627 0.01360931 5.61871033 0.01376038 6.85620117 0.01391602 C8.15830536 0.02423859 9.46040955 0.03456116 10.80197144 0.04519653 C12.14432566 0.04892627 13.48668261 0.05177343 14.82904053 0.05377197 C18.36367294 0.06141159 21.89814122 0.08106273 25.43270874 0.10317993 C29.03884663 0.12363138 32.64501103 0.13277218 36.25119019 0.14285278 C43.32808029 0.16430843 50.4048589 0.19844824 57.48165894 0.24050903 C57.48165894 0.57050903 57.48165894 0.90050903 57.48165894 1.24050903 C38.34165894 1.24050903 19.20165894 1.24050903 -0.51834106 1.24050903 C-0.84834106 3.88050903 -1.17834106 6.52050903 -1.51834106 9.24050903 C-2.50834106 9.24050903 -3.49834106 9.24050903 -4.51834106 9.24050903 C-4.64334106 5.86550903 -4.64334106 5.86550903 -4.51834106 2.24050903 C-2.51834106 0.24050903 -2.51834106 0.24050903 0 0 Z " fill="#91ADD2" transform="translate(23.518341064453125,3.759490966796875)"/>
<path d="M0 0 C0.99 0 1.98 0 3 0 C3.33 2.64 3.66 5.28 4 8 C20.83 8 37.66 8 55 8 C55 8.33 55 8.66 55 9 C47.48863592 9.05057965 39.97731551 9.08568257 32.46582031 9.10986328 C29.90883747 9.11994038 27.35186621 9.13360226 24.79492188 9.15087891 C21.12627308 9.17505217 17.45777621 9.18646585 13.7890625 9.1953125 C12.0655809 9.21079636 12.0655809 9.21079636 10.30728149 9.22659302 C9.2463327 9.22674408 8.18538391 9.22689514 7.09228516 9.22705078 C6.15518707 9.231492 5.21808899 9.23593323 4.25259399 9.24050903 C2 9 2 9 0 7 C-0.125 3.375 -0.125 3.375 0 0 Z " fill="#91ADD2" transform="translate(19,83)"/>
<path d="M0 0 C0 2.31 0 4.62 0 7 C-6.0546875 7.1953125 -6.0546875 7.1953125 -8 7 C-8.66 6.34 -9.32 5.68 -10 5 C-9.625 2.875 -9.625 2.875 -9 1 C-5.92677456 0.08941469 -3.19902639 -0.08886184 0 0 Z " fill="#405068" transform="translate(22,74)"/>
<path d="M0 0 C0 2.31 0 4.62 0 7 C-6.0546875 7.1953125 -6.0546875 7.1953125 -8 7 C-8.66 6.34 -9.32 5.68 -10 5 C-9.625 2.875 -9.625 2.875 -9 1 C-5.846632 0.29925156 -3.27275026 0 0 0 Z " fill="#415068" transform="translate(22,15)"/>
<path d="M0 0 C1.2065625 0.0309375 1.2065625 0.0309375 2.4375 0.0625 C2.4375 2.0425 2.4375 4.0225 2.4375 6.0625 C0.7875 6.0625 -0.8625 6.0625 -2.5625 6.0625 C-2.94468767 4.40635343 -3.27645102 2.73792976 -3.5625 1.0625 C-2.5625 0.0625 -2.5625 0.0625 0 0 Z " fill="#515F78" transform="translate(19.5625,59.9375)"/>
<path d="M0 0 C1.65 0 3.3 0 5 0 C5 1.98 5 3.96 5 6 C3.35 6 1.7 6 0 6 C0 4.02 0 2.04 0 0 Z " fill="#536079" transform="translate(17,45)"/>
<path d="M0 0 C0.99 0 1.98 0 3 0 C3.66 2.97 4.32 5.94 5 9 C1 8 1 8 0 7 C-0.04092937 4.66702567 -0.04241723 2.33294775 0 0 Z " fill="#8298B3" transform="translate(19,83)"/>
<path d="M0 0 C0.99 0.33 1.98 0.66 3 1 C2.34 3.64 1.68 6.28 1 9 C0.01 9 -0.98 9 -2 9 C-2.125 5.625 -2.125 5.625 -2 2 C-1.34 1.34 -0.68 0.68 0 0 Z " fill="#8298B4" transform="translate(21,4)"/>
<path d="M0 0 C0.99 0 1.98 0 3 0 C3 1.98 3 3.96 3 6 C1.68 5.67 0.36 5.34 -1 5 C-1 1 -1 1 0 0 Z " fill="#424E62" transform="translate(14,45)"/>
<path d="M0 0 C2.0625 0.4375 2.0625 0.4375 4 1 C3.67 2.65 3.34 4.3 3 6 C1.68 6 0.36 6 -1 6 C-1.042721 4.33388095 -1.04063832 2.66617115 -1 1 C-0.67 0.67 -0.34 0.34 0 0 Z " fill="#404D62" transform="translate(14,30)"/>
<path d="M0 0 C1.32 0 2.64 0 4 0 C4 1.65 4 3.3 4 5 C2.35 4.67 0.7 4.34 -1 4 C-0.67 2.68 -0.34 1.36 0 0 Z " fill="#55627A" transform="translate(17,75)"/>
<path d="M0 0 C1.32 0 2.64 0 4 0 C4 1.65 4 3.3 4 5 C2.68 5 1.36 5 0 5 C0 3.35 0 1.7 0 0 Z " fill="#55627A" transform="translate(17,31)"/>
<path d="M0 0 C1.32 0 2.64 0 4 0 C4 1.65 4 3.3 4 5 C2.68 5 1.36 5 0 5 C0 3.35 0 1.7 0 0 Z " fill="#55627A" transform="translate(17,16)"/>
<path d="M0 0 C0.99 0.33 1.98 0.66 3 1 C3 2.65 3 4.3 3 6 C1.68 5.67 0.36 5.34 -1 5 C-0.67 3.35 -0.34 1.7 0 0 Z " fill="#414E61" transform="translate(14,60)"/>
<path d="M0 0 C1.98 0 3.96 0 6 0 C5.67 0.99 5.34 1.98 5 3 C3.35 3 1.7 3 0 3 C0 2.01 0 1.02 0 0 Z " fill="#40597D" transform="translate(58,33)"/>
</svg>
